# xmcd
# Track frame offsets:
# 150
# 16997
# 37059
# 55618
# 74563
# 92501
# 109880
# 124980
# 139199
# 154862
# 176651
#
# Disc length: 2620 seconds
# Revision: 0
# Processed by: cddbd v1.5.2PL0 Copyright (c) Steve Scherf et al.
# Submitted via: VisiTrax 2.11.2.271 - For more info visit www.synapsa.com
#
DISCID=990a3a0b
DTITLE=Meeking, Michael and the Lost Souls - Ride On
DYEAR=2012
DGENRE=Country
TTITLE0=Meeking. Michael and The Lost Souls - What is Lost Can be Found
TTITLE1=Meeking, Michael - Let Go
TTITLE2=Meeking, Michael - Happy (sometime today)
TTITLE3=Meeking, Michael - Ride On
TTITLE4=Meeking, Michael, - Butterfly Wings
TTITLE5=Meeking, Michael - Are You Listening?
TTITLE6=Meeking, Michael - Gentle (feat.Kylie Auldist)
TTITLE7=Meeking, Michael - Murder
TTITLE8=Meeking, Michael - Angel
TTITLE9=Meeking, Michael - Room for You
TTITLE10=Meeking, Michael - Miss Me Tonight
EXTD=
EXTT0=
EXTT1=
EXTT2=
EXTT3=
EXTT4=
EXTT5=
EXTT6=
EXTT7=
EXTT8=
EXTT9=
EXTT10=
PLAYORDER=
